<svg xmlns="http://www.w3.org/2000/svg" xmlns:xlink="http://www.w3.org/1999/xlink" width="240" height="240" viewBox="0 0 240 240">
  <defs>
    <clipPath id="clip-Arrow-right">
      <rect width="240" height="240"/>
    </clipPath>
  </defs>
  <g id="Arrow-right" clip-path="url(#clip-Arrow-right)">
    <g id="noun-arrow-2094742" transform="translate(-15.004 -1.307)">
      <g id="Group_12" data-name="Group 12">
        <path id="Path_14" data-name="Path 14" d="M244.395,111.946,185.6,53.053a14.407,14.407,0,1,0-20.361,20.376l34.755,34.761H84.4a14.419,14.419,0,0,0,0,28.839H199.67l-34.433,34.547A14.407,14.407,0,0,0,185.6,191.951l58.8-58.893a14.323,14.323,0,0,0,4.215-10.2,2.153,2.153,0,0,0,0-.358,2.453,2.453,0,0,0,0-.358,14.45,14.45,0,0,0-4.215-10.2Z" transform="translate(-24.063 -1.358)"/>
        <rect id="Rectangle_1" data-name="Rectangle 1" width="180" height="180" transform="translate(45.004 31.307)" fill="none"/>
      </g>
    </g>
  </g>
</svg>
