<svg xmlns="http://www.w3.org/2000/svg" xmlns:xlink="http://www.w3.org/1999/xlink" width="240" height="240" viewBox="0 0 240 240">
  <defs>
    <clipPath id="clip-card-simon-says">
      <rect width="240" height="240"/>
    </clipPath>
  </defs>
  <g id="card-simon-says" clip-path="url(#clip-card-simon-says)">
    <g id="noun-talking-1429003" transform="translate(-34.496 25.998)">
      <path id="Path_2" data-name="Path 2" d="M511.959,325.678a4.235,4.235,0,0,0-.814,5.929,13.4,13.4,0,0,1-2.541,18.754,4.236,4.236,0,1,0,5.083,6.777,21.872,21.872,0,0,0,4.286-30.664,4.235,4.235,0,0,0-6.014-.8Z" transform="translate(-305.508 -217.449)"/>
      <path id="Path_3" data-name="Path 3" d="M547.242,342.478a4.236,4.236,0,1,0,5.083,6.777,36.949,36.949,0,0,0,7.081-51.823,4.235,4.235,0,1,0-6.776,5.083,28.476,28.476,0,0,1-5.422,39.912Z" transform="translate(-332.457 -197.449)"/>
      <path id="Path_4" data-name="Path 4" d="M210.091,78.253a21.309,21.309,0,0,1-11.539-17.936,59.251,59.251,0,0,0-.656-6.736C194.974,35.492,183.687,14,146.33,14h-.689c-33.309,0-59.275,22.2-61.794,52.883a57.778,57.778,0,0,0,8.113,34.8A57.9,57.9,0,0,1,95.235,156.8a4.2,4.2,0,1,0,7.558,3.655,66.3,66.3,0,0,0-3.645-63.088,49.4,49.4,0,0,1-6.92-29.81c2.132-26.188,24.591-45.136,53.447-45.136h.639c25.615,0,39.757,10.627,43.285,32.454a50.723,50.723,0,0,1,.555,5.9,29.629,29.629,0,0,0,15.957,24.893,6.7,6.7,0,0,1,1.848,1.246,1.823,1.823,0,0,1-.169,2.122,14.841,14.841,0,0,1-7.306,4.093,4.209,4.209,0,0,0-3.091,4.243l.47,9.684h0a46.8,46.8,0,0,1-11.757,1.062,7.433,7.433,0,0,0-6.216,2.913,7.649,7.649,0,0,0-1.243,6.938c1.193,3.857,4.8,10.526,15.6,12.951l-.185.724h0a20.884,20.884,0,0,0-.437,8.084,4.171,4.171,0,0,0,.151.505,6.467,6.467,0,0,1-.47,5.407,6.267,6.267,0,0,1-4.35,3.1,70.237,70.237,0,0,1-19.048.842,45.928,45.928,0,0,1-18.141-5.221,24.3,24.3,0,0,1-8.953-7.58,4.2,4.2,0,1,0-7.038,4.6,32.464,32.464,0,0,0,11.976,10.358,50.067,50.067,0,0,0,9.289,3.873v14.181a4.2,4.2,0,1,0,8.4,0V157.514c1.209.186,2.436.337,3.679.438a78.744,78.744,0,0,0,21.332-.943,14.839,14.839,0,0,0,11.371-19.216,15.468,15.468,0,0,1,.336-4.109l.52-2.089a7.156,7.156,0,0,0-.856-5.592,6.987,6.987,0,0,0-4.7-3.081c-5.122-.909-8.583-3.1-10.079-6.332a53.462,53.462,0,0,0,16.528-2.375,4.209,4.209,0,0,0,2.839-4.193l-.487-9.9a21.257,21.257,0,0,0,8.146-5.507,10.127,10.127,0,0,0,1.092-12.092,12.341,12.341,0,0,0-5.073-4.261Z" transform="translate(-9.141 0)"/>
    </g>
  </g>
</svg>
