<svg xmlns="http://www.w3.org/2000/svg" xmlns:xlink="http://www.w3.org/1999/xlink" width="240" height="240" viewBox="0 0 240 240">
  <defs>
    <clipPath id="clip-card-shuttle_run">
      <rect width="240" height="240"/>
    </clipPath>
  </defs>
  <g id="card-shuttle_run" data-name="card-shuttle run" clip-path="url(#clip-card-shuttle_run)">
    <g id="noun-run-2975843" transform="translate(-38.446 8.929)">
      <path id="Path_1" data-name="Path 1" d="M162.569,100.207c-2.742,7.444-13.82,3.189-11.077-4.265C155.78,84.4,165.859,72.737,176.146,67c7.668-4.272,16.4-6.1,25.468-3.269,8.922,2.14,8.953,2.027,16.983,6.768,1.731,1.049,16.176,10.269,16.176,10.269.039-.009,8.49-15.8,9.666-17.909,3.837-6.915,14.13-.95,10.29,5.967-3.93,7.042-9.868,21.975-17.313,23.739-6.751,1.6-16.473-6.442-22.519-10.216-2.585,6.878-13.236,39.837-16.519,44.121,5.124,6.218,12.229,13.611,14.04,21.3,2.13,9.061-3.363,28.172-5.378,38.487-1.521,7.816-13.152,5.455-11.632-2.366,1.419-7.266,6.759-28.037,5.515-33.326-.709-3.008-17.21-24.747-20.478-27.132-21.567,39.368-26.132,32.747-65.8,32.747-7.8,0-7.8-12.127,0-12.127,35.4,0,37.773,5.952,56.683-28.73a5.847,5.847,0,0,1-.144-4.6c1.029-3.225,11.332-22.41,18.267-35.154-2.816.426-5.077.608-7.653,2.042-7.824,4.364-15.936,13.733-19.23,22.593Zm-61.145,9.312c-7.8,0-7.8-12.129,0-12.129h38.3c7.8,0,7.8,12.129,0,12.129Zm8.166-20.7c-7.8,0-7.8-12.127,0-12.127h38.3c7.8,0,7.8,12.127,0,12.127Zm14.125-20.693c-7.8,0-7.8-12.127,0-12.127h38.3c7.8,0,7.8,12.127,0,12.127ZM216.928,31.1a15.376,15.376,0,1,1-14.034,16.337A15.156,15.156,0,0,1,216.928,31.1Z" transform="translate(-17.127)"/>
    </g>
  </g>
</svg>
