<svg xmlns="http://www.w3.org/2000/svg" xmlns:xlink="http://www.w3.org/1999/xlink" width="240" height="240" viewBox="0 0 240 240">
  <defs>
    <clipPath id="clip-player">
      <rect width="240" height="240"/>
    </clipPath>
  </defs>
  <g id="player" clip-path="url(#clip-player)">
    <g id="noun-person-1607993" transform="translate(-42.206 -93.144)">
      <path id="Path_8" data-name="Path 8" d="M369.387,248.847l-8.681-56.995v-.834c0-.255-.053-.5-.073-.744-.065-.022-.111-.049-.177-.07l-.083-.56a9.119,9.119,0,0,0-8.218-7.692v-.063h-4.65l-14.771,0H286.56l0,.063a9.107,9.107,0,0,0-8.218,7.693l-9.018,59.2a9.125,9.125,0,1,0,18.041,2.749l6.968-45.751h.07V341.07a11.068,11.068,0,1,0,22.136,0l0-67.926v-2.885a2.819,2.819,0,1,1,5.639,0v70.806a11.068,11.068,0,1,0,22.136,0l0-78.278V205.843h.07l6.972,45.751a9.122,9.122,0,1,0,18.036-2.752Z" transform="translate(-157.15 -29.633)"/>
      <path id="Path_9" data-name="Path 9" d="M358.591,125.88a22.1,22.1,0,1,1-22.1-22.1,22.1,22.1,0,0,1,22.1,22.1" transform="translate(-174.288 0)"/>
    </g>
  </g>
</svg>
